<svg width="1440" height="900" viewBox="0 0 1440 900" fill="none" xmlns="http://www.w3.org/2000/svg">
<g clip-path="url(#clip0)">
<rect width="1440" height="900" fill="#232323"/>
<path d="M13.6063 1108.28C69.8965 797.383 -724.123 430.15 112.079 177.056C948.281 -76.0379 729.925 340.822 1104.6 296.159C1479.28 251.495 1655.45 514.514 1655.45 514.514L1558.68 1108.28H13.6063Z" fill="white" fill-opacity="0.01"/>
<path d="M46.7042 1261.42C83.3923 947.604 -732.088 630.873 86.6013 325.853C905.291 20.8329 713.499 450.563 1084.64 382.497C1455.78 314.432 1648.1 565.888 1648.1 565.888L1588.74 1164.56L46.7042 1261.42Z" fill="white" fill-opacity="0.01"/>
<path d="M112.978 1472.36C113.865 1156.4 -732.257 934.132 46.5906 538.295C825.438 142.459 683.583 591.155 1044.62 481.467C1405.66 371.779 1625.23 599.821 1625.23 599.821L1634.1 1201.36L112.978 1472.36Z" fill="white" fill-opacity="0.01" stroke="#E98559" stroke-width="3"/>
<path d="M263.423 2036.85C209.487 1545.67 -701.983 1159.29 32.7797 581.419C767.542 3.54981 699.095 694.319 1052.51 541.191C1405.92 388.062 1672.03 753.197 1672.03 753.197L1785.61 1688.86L263.423 2036.85Z" stroke="#E98559"/>
<path d="M152.298 1962.92C153.679 1468.78 -708.818 982.813 86.0062 490.814C880.831 -1.18549 735.498 677.582 1103.83 564.972C1472.16 452.363 1695.73 844.987 1695.73 844.987L1703.87 1787.49L152.298 1962.92Z" stroke="#1BF1AD"/>
<path d="M213.541 1711.84C166.41 1399.42 -703.661 1308.29 5.99779 798.709C715.656 289.126 643.626 754.167 983.803 590.895C1323.98 427.622 1575.66 619.653 1575.66 619.653L1675.83 1212.86L213.541 1711.84Z" fill="white" fill-opacity="0.01"/>
<path d="M382.805 1915.42C298.556 1610.91 -576.165 1624.76 67.2768 1033.76C710.718 442.772 694.964 913.094 1013.11 710.213C1331.26 507.332 1604.14 667.802 1604.14 667.802L1774.72 1244.72L382.805 1915.42Z" fill="white" fill-opacity="0.01"/>
</g>
<defs>
<clipPath id="clip0">
<rect width="1440" height="900" fill="white"/>
</clipPath>
</defs>
</svg>
