<?xml version="1.0" encoding="utf-8"?>
<!-- Generator: Adobe Illustrator 22.1.0, SVG Export Plug-In . SVG Version: 6.00 Build 0)  -->
<svg version="1.1" id="Layer_1" xmlns="http://www.w3.org/2000/svg" xmlns:xlink="http://www.w3.org/1999/xlink" x="0px" y="0px"
	 viewBox="0 0 167 22" style="enable-background:new 0 0 167 22;" xml:space="preserve">
<style type="text/css">
	.st0{fill:#FFFFFF;}
</style>
<g>
	<g>
		<path class="st0" d="M11.5,20.5C6.3,20.5,2,16.2,2,11s4.3-9.5,9.5-9.5S21,5.8,21,11S16.7,20.5,11.5,20.5z M11.5,3.5
			C7.4,3.5,4,6.9,4,11s3.4,7.5,7.5,7.5S19,15.1,19,11S15.6,3.5,11.5,3.5z"/>
	</g>
	<g>
		<path class="st0" d="M57.1,20.3H27.3L42.2,1.7L57.1,20.3z M31.4,18.3h21.5L42.2,4.9L31.4,18.3z"/>
	</g>
	<g>
		<path class="st0" d="M73.5,20.5c-5.2,0-9.5-4.3-9.5-9.5s4.3-9.5,9.5-9.5S83,5.8,83,11S78.7,20.5,73.5,20.5z M73.5,3.5
			C69.4,3.5,66,6.9,66,11s3.4,7.5,7.5,7.5S81,15.1,81,11S77.6,3.5,73.5,3.5z"/>
	</g>
	<g>
		<path class="st0" d="M99.7,4v8.1c0,1.1,0.2,1.9,0.7,2.4c0.5,0.5,1.2,0.8,2.1,0.8c0.9,0,1.6-0.3,2-0.8c0.5-0.5,0.7-1.4,0.7-2.4V4
			h2.7v8.1c0,1.3-0.2,2.4-0.7,3.2c-0.5,0.9-1.1,1.5-2,2s-1.8,0.6-2.9,0.6c-1.7,0-3-0.5-4-1.5c-1-1-1.5-2.4-1.5-4.4V4H99.7z"/>
		<path class="st0" d="M125.4,17.8h-2.8l-6.2-9.4v9.4h-2.8V4h2.8l6.2,9.5V4h2.8V17.8z"/>
		<path class="st0" d="M134,4v13.8h-2.8V4H134z"/>
		<path class="st0" d="M149.2,4v2.2h-3.8v11.6h-2.8V6.2h-3.8V4H149.2z"/>
		<path class="st0" d="M165.2,4l-4.7,9v4.8h-2.8V13l-4.7-9h3.2l2.9,6l2.9-6H165.2z"/>
	</g>
</g>
</svg>
